<svg width="88" height="88" viewBox="0 0 88 88" fill="none" xmlns="http://www.w3.org/2000/svg">
<g id="Property 1=Customer Portal, Property 2=Calendar, Property 3=DSK, Property 4=Outline">
<g id="Group">
<path id="Vector" d="M61.1188 12.8562H55.7563V25.5062H61.1188V12.8562Z" stroke="#064056" stroke-width="2" stroke-miterlimit="10"/>
<path id="Vector_2" d="M32.2438 12.7875H26.8813V25.4375H32.2438V12.7875Z" stroke="#064056" stroke-width="2" stroke-linecap="round" stroke-linejoin="round"/>
<path id="Vector_3" d="M67.4437 18.2875H61.1188V25.4375H55.7562V18.2875H32.3125V25.4375H26.8812V18.2875H20.5562C17.6 18.2875 15.125 19.9375 15.125 22V68.4062C15.125 70.4687 17.5312 72.1187 20.5562 72.1187H67.4437C70.4 72.1187 72.8063 70.4687 72.8063 68.4062V22C72.8063 19.9375 70.4 18.2875 67.4437 18.2875Z" stroke="#064056" stroke-width="2" stroke-linecap="round" stroke-linejoin="round"/>
<path id="Vector_4" d="M36.0249 56.9937V54.7937L46.3374 40.975H48.7437V54.7937H51.2187V56.9937H48.7437V61.6687H46.3374V56.9937H36.0249ZM40.0124 53.0062C39.7374 53.35 39.5312 53.625 39.2562 53.9C38.9812 54.175 38.7062 54.45 38.2937 54.7937H46.4062V47.575C46.4062 47.3 46.4062 46.9562 46.4062 46.475C46.4062 45.9937 46.4061 45.5812 46.4749 45.1687C46.5437 44.7562 46.5436 44.3437 46.5436 44.0687C46.4061 44.4125 46.2687 44.825 46.0624 45.1687C45.8562 45.5125 45.6499 45.8562 45.3749 46.2L40.0124 53.0062Z" fill="#064056"/>
<path id="Vector_5" d="M15.1938 32.6562H72.8063" stroke="#064056" stroke-width="2" stroke-linecap="round" stroke-linejoin="round"/>
<path id="Vector_6" d="M32.2438 12.7875H26.8813V25.4375H32.2438V12.7875Z" stroke="#064056" stroke-width="2" stroke-miterlimit="10"/>
<path id="Vector_7" d="M61.1188 12.8562H55.7563V25.5062H61.1188V12.8562Z" stroke="#064056" stroke-width="2" stroke-miterlimit="10"/>
<path id="Vector_8" d="M32.2438 12.7875H26.8813V25.4375H32.2438V12.7875Z" stroke="#064056" stroke-width="2" stroke-linecap="round" stroke-linejoin="round"/>
<path id="Vector_9" d="M61.1188 12.8562H55.7563V25.5062H61.1188V12.8562Z" stroke="#064056" stroke-width="2" stroke-linecap="round" stroke-linejoin="round"/>
</g>
</g>
</svg>
